Format : AVI
Format/Info : Audio Video Interleave
File size : 1.10 GiB
Duration : 1h 34mn
Overall bit rate : 1 665 Kbps
Writing library : VirtualDub build 32842/release

Video
ID : 0
Format : MPEG-4 Visual
Format profile : Advanced Simple@L5
Format settings, BVOP : 2
Format settings, QPel : No
Format settings, GMC : No warppoints
Format settings, Matrix : Default (H.263)
Muxing mode : Packed bitstream
Codec ID : XVID
Codec ID/Hint : XviD
Duration : 1h 34mn
Bit rate : 1 527 Kbps
Width : 720 pixels
Height : 320 pixels
Display aspect ratio : 2.25:1
Frame rate : 25.000 fps
Color space : YUV
Chroma subsampling : 4:2:0
Bit depth : 8 bits
Scan type : Progressive
Compression mode : Lossy
Bits/(Pixel*Frame) : 0.265
Stream size : 1.01 GiB (92%)
Writing library : XviD 64

Audio
ID : 1
Format : MPEG Audio
Format version : Version 1
Format profile : Layer 3
Mode : Joint stereo
Mode extension : MS Stereo
Codec ID : 55
Codec ID/Hint : MP3
Duration : 1h 34mn
Bit rate mode : Constant
Bit rate : 128 Kbps
Channel(s) : 2 channels
Sampling rate : 44.1 KHz
Compression mode : Lossy
Delay relative to video : 4ms
Stream size : 86.6 MiB (8%)
Alignment : Split accross interleaves
Interleave, duration : 40 ms (1.00 video frame)
Interleave, preload duration : 500 ms
Writing library : LAME3.98.4




 
http://www.imdb.com/title/tt1216475/







Users: (961 votes) 38 reviews | Critics: 18 reviews Metascore: 58/100 (based on 35 reviews from Metacritic.com)


Star race car Lightning McQueen and his pal Mater head overseas to compete in the World Grand Prix race. But the road to the championship becomes rocky as Mater gets caught up in an intriguing adventure of his own: international espionage.

Directors: John Lasseter, Brad Lewis
Writers: Ben Queen (screenplay), John Lasseter (story), and 2 more credits »
Stars: Owen Wilson, Larry the Cable Guy and Michael Caine













 
http://www.leetleech.org/images/05878945218332310867.png




Source Used

VIDEO: ........................... Cars2.TS.DVD.RELIZLAB ....IMAGiNE ......Thanks

AUDIO: ........................... CARS.2.iPhoneCAM-FU.Its.Free..............Thanks

Eng subs for parts needed ...........IMAGiNE ..........Thanks





Few filters just slight saturation adjust and contrast not a great deal vid was already good .......


Enjoy





Greetz to IMAGiNE,Flawl3ss,DiLLoN,BDK,NOiR,TOXiC,THC,Ez,Rx,Boobyblue,TaRiQ786,LKRG,